    <svg xmlns="http://www.w3.org/2000/svg" width="281" height="191" viewBox="0 0 281 191" fill="none">
        <path d="M-7.80818e-06 38.2844C-7.80818e-06 58.3393 3.63412 78.1978 10.6949 96.7262C17.7557 115.254 28.1049 132.09 41.1515 146.271C54.1981 160.452 69.6867 171.701 86.733 179.375C103.779 187.05 122.049 191 140.5 191C158.951 191 177.221 187.05 194.267 179.375C211.313 171.701 226.802 160.452 239.849 146.271C252.895 132.09 263.244 115.254 270.305 96.7261C277.366 78.1978 281 58.3393 281 38.2844C281 38.2844 257.289 82.7335 234.745 91.154C212.288 99.5423 200.385 102.17 172.096 83.1427C143.807 64.1159 130.637 -1.47673 75.3585 0.0253865C20.0798 1.52751 -7.80818e-06 38.2844 -7.80818e-06 38.2844Z" fill="url(#paint0_linear_10549_3108)" fill-opacity="0.4"/>
        <defs>
        <linearGradient id="paint0_linear_10549_3108" x1="140.5" y1="191" x2="140.5" y2="-4.1127e-06" gradientUnits="userSpaceOnUse">
        <stop stop-color="#830000"/>
        <stop offset="0.175687" stop-color="#830000"/>
        <stop offset="0.374741" stop-color="#830000"/>
        <stop offset="0.515625" stop-color="#830000"/>
        <stop offset="0.6875" stop-color="#830000"/>
        <stop offset="1" stop-color="#DFBCBC" stop-opacity="0"/>
        </linearGradient>
        </defs>
    </svg>