<svg width="76" height="76" viewBox="0 0 76 76" fill="none" xmlns="http://www.w3.org/2000/svg">
<g id="pause 1">
<path id="Vector" d="M30.875 64.125H23.75C23.1201 64.125 22.516 63.8748 22.0706 63.4294C21.6252 62.984 21.375 62.3799 21.375 61.75V14.25C21.375 13.6201 21.6252 13.016 22.0706 12.5706C22.516 12.1252 23.1201 11.875 23.75 11.875H30.875C31.5049 11.875 32.109 12.1252 32.5544 12.5706C32.9998 13.016 33.25 13.6201 33.25 14.25V61.75C33.25 62.3799 32.9998 62.984 32.5544 63.4294C32.109 63.8748 31.5049 64.125 30.875 64.125Z" fill="black"/>
<path id="Vector_2" d="M52.25 64.125H45.125C44.4951 64.125 43.891 63.8748 43.4456 63.4294C43.0002 62.984 42.75 62.3799 42.75 61.75V14.25C42.75 13.6201 43.0002 13.016 43.4456 12.5706C43.891 12.1252 44.4951 11.875 45.125 11.875H52.25C52.8799 11.875 53.484 12.1252 53.9294 12.5706C54.3748 13.016 54.625 13.6201 54.625 14.25V61.75C54.625 62.3799 54.3748 62.984 53.9294 63.4294C53.484 63.8748 52.8799 64.125 52.25 64.125Z" fill="black"/>
</g>
</svg>
