<svg width="50" height="34" viewBox="0 0 50 34" fill="none" xmlns="http://www.w3.org/2000/svg">
<path id="Vector" d="M48.4718 13.8658L28.7962 0.528768C28.3095 0.193216 27.7521 0.0119214 27.1824 0.00382431C26.6126 -0.00427283 26.0514 0.161125 25.5574 0.482737C25.0214 0.836391 24.5775 1.34447 24.2708 1.95537C23.9642 2.56627 23.8057 3.25823 23.8114 3.96099V13.291L4.98494 0.525227C4.49818 0.189676 3.94082 0.00838078 3.37109 0.000283644C2.80136 -0.00781349 2.24016 0.157584 1.74613 0.479197C1.21009 0.83285 0.766204 1.34093 0.459551 1.95183C0.152898 2.56273 -0.0055976 3.25469 0.000161295 3.95745V30.0414C-0.00578214 30.7443 0.152626 31.4365 0.459288 32.0477C0.765951 32.6588 1.20994 33.1671 1.74613 33.5208C2.24016 33.8424 2.80136 34.0078 3.37109 33.9997C3.94082 33.9916 4.49818 33.8103 4.98494 33.4748L23.8114 20.7031V30.0367C23.8048 30.7404 23.9628 31.4336 24.2695 32.0456C24.5762 32.6576 25.0206 33.1667 25.5574 33.5208C26.0514 33.8424 26.6126 34.0078 27.1824 33.9997C27.7521 33.9916 28.3095 33.8103 28.7962 33.4748L48.4718 20.1377C48.9395 19.8058 49.3251 19.3446 49.5924 18.7975C49.8598 18.2504 50 17.6354 50 17.01C50 16.3847 49.8598 15.7696 49.5924 15.2225C49.3251 14.6755 48.9395 14.2143 48.4718 13.8823V13.8658Z" fill="black"/>
</svg>
