<svg width="24" height="24" viewBox="0 0 24 24" fill="none" xmlns="http://www.w3.org/2000/svg">
<g id="volume-up 1" clip-path="url(#clip0_10549_3121)">
<g id="Layer 2">
<g id="volume-up">
<path id="Vector" d="M18.28 8.3707C18.1129 8.16383 17.8705 8.03181 17.6061 8.00368C17.3416 7.97555 17.0769 8.05361 16.87 8.2207C16.6631 8.38778 16.5311 8.6302 16.503 8.89463C16.4748 9.15906 16.5529 9.42383 16.72 9.6307C17.2252 10.3176 17.4977 11.148 17.4977 12.0007C17.4977 12.8534 17.2252 13.6838 16.72 14.3707C16.6008 14.5177 16.5257 14.6954 16.5035 14.8834C16.4813 15.0713 16.5129 15.2617 16.5945 15.4324C16.6762 15.6031 16.8047 15.7471 16.9649 15.8477C17.1252 15.9483 17.3108 16.0013 17.5 16.0007C17.6494 16.0012 17.797 15.9682 17.932 15.9042C18.067 15.8402 18.1859 15.7467 18.28 15.6307C19.0732 14.5868 19.5026 13.3118 19.5026 12.0007C19.5026 10.6896 19.0732 9.41462 18.28 8.3707Z" fill="black"/>
<path id="Vector_2" d="M19.6401 5.2293C19.5389 5.14525 19.4223 5.08194 19.2967 5.04299C19.1711 5.00404 19.0391 4.9902 18.9081 5.00228C18.7772 5.01435 18.6499 5.05209 18.5336 5.11335C18.4172 5.1746 18.3141 5.25818 18.2301 5.3593C18.146 5.46041 18.0827 5.5771 18.0437 5.70268C18.0048 5.82826 17.991 5.96029 18.003 6.09122C18.0151 6.22215 18.0528 6.34942 18.1141 6.46577C18.1754 6.58211 18.2589 6.68525 18.3601 6.7693C19.1621 7.38917 19.8154 8.1805 20.2722 9.08541C20.7289 9.99031 20.9776 10.9859 21.0001 11.9993C20.9776 13.0127 20.7289 14.0083 20.2722 14.9132C19.8154 15.8181 19.1621 16.6094 18.3601 17.2293C18.2588 17.3132 18.1751 17.4163 18.1137 17.5327C18.0524 17.649 18.0146 17.7763 18.0025 17.9073C17.9904 18.0383 18.0043 18.1704 18.0434 18.296C18.0824 18.4216 18.1458 18.5382 18.2301 18.6393C18.3241 18.7522 18.4418 18.843 18.5749 18.9052C18.708 18.9674 18.8531 18.9995 19.0001 18.9993C19.2337 18.9998 19.4601 18.9184 19.6401 18.7693C20.6705 17.9637 21.5072 16.9374 22.0887 15.7658C22.6702 14.5942 22.9816 13.3071 23.0001 11.9993C22.9816 10.6915 22.6702 9.40441 22.0887 8.23281C21.5072 7.06121 20.6705 6.03487 19.6401 5.2293Z" fill="black"/>
<path id="Vector_3" d="M14.47 3.1203C14.318 3.03253 14.1455 2.98633 13.97 2.98633C13.7945 2.98633 13.622 3.03253 13.47 3.1203L7 7.5703H2C1.73478 7.5703 1.48043 7.67566 1.29289 7.8632C1.10536 8.05073 1 8.30509 1 8.5703V15.4303C1 15.6955 1.10536 15.9499 1.29289 16.1374C1.48043 16.3249 1.73478 16.4303 2 16.4303H7L13.41 20.8303C13.5856 20.9439 13.7909 21.0031 14 21.0003C14.2652 21.0003 14.5196 20.8949 14.7071 20.7074C14.8946 20.5199 15 20.2655 15 20.0003V4.0003C14.9995 3.8194 14.95 3.64201 14.8566 3.48704C14.7633 3.33208 14.6297 3.20533 14.47 3.1203Z" fill="black"/>
</g>
</g>
</g>
<defs>
<clipPath id="clip0_10549_3121">
<rect width="24" height="24" fill="white"/>
</clipPath>
</defs>
</svg>
